<svg xmlns="http://www.w3.org/2000/svg" xmlns:xlink="http://www.w3.org/1999/xlink" width="500" zoomAndPan="magnify" viewBox="0 0 375 374.999991" height="500" preserveAspectRatio="xMidYMid meet" version="1.0"><defs><g/><clipPath id="03c7e30a20"><path d="M 86.988281 198.054688 L 132 198.054688 L 132 244 L 86.988281 244 Z M 86.988281 198.054688 " clip-rule="nonzero"/></clipPath><clipPath id="c5f5a8a15e"><path d="M 97 200 L 133.488281 200 L 133.488281 244.554688 L 97 244.554688 Z M 97 200 " clip-rule="nonzero"/></clipPath></defs><g fill="#1e2c4b" fill-opacity="1"><g transform="translate(143.621484, 222.835963)"><g><path d="M 12.019531 0.496094 C 14.058594 0.496094 16.394531 0.0585938 17.941406 -2.070312 L 17.941406 0 L 22.695312 0 L 22.695312 -12.425781 L 12.835938 -12.425781 L 12.835938 -8.226562 L 17.472656 -8.226562 C 17.328125 -5.367188 15.546875 -4.171875 12.601562 -4.171875 C 8.519531 -4.171875 6.417969 -6.914062 6.417969 -11.144531 C 6.417969 -15.34375 8.519531 -18.054688 12.019531 -18.054688 C 14.761719 -18.054688 16.363281 -16.949219 16.890625 -14.730469 L 22.605469 -14.730469 C 21.878906 -19.542969 18.320312 -22.722656 12.019531 -22.722656 C 4.40625 -22.722656 0.902344 -17.355469 0.902344 -11.144531 C 0.902344 -4.929688 4.40625 0.496094 12.019531 0.496094 Z M 12.019531 0.496094 "/></g></g></g><g fill="#1e2c4b" fill-opacity="1"><g transform="translate(169.786274, 222.835963)"><g><path d="M 5.601562 0 L 6.796875 -3.996094 L 14.207031 -3.996094 L 15.402344 0 L 20.945312 0 L 13.332031 -22.257812 L 7.671875 -22.257812 L 0.0585938 0 Z M 10.5 -16.453125 L 12.835938 -8.519531 L 8.167969 -8.519531 Z M 10.5 -16.453125 "/></g></g></g><g fill="#1e2c4b" fill-opacity="1"><g transform="translate(192.830019, 222.835963)"><g><path d="M 11.726562 0 L 11.726562 -17.589844 L 18 -17.589844 L 18 -22.257812 L 0.234375 -22.257812 L 0.234375 -17.589844 L 6.503906 -17.589844 L 6.503906 0 Z M 11.726562 0 "/></g></g></g><g fill="#1e2c4b" fill-opacity="1"><g transform="translate(213.10274, 222.835963)"><g><path d="M 16.949219 0 L 16.949219 -4.667969 L 6.972656 -4.667969 L 6.972656 -8.808594 L 15.984375 -8.808594 L 15.984375 -13.449219 L 6.972656 -13.449219 L 6.972656 -17.589844 L 16.949219 -17.589844 L 16.949219 -22.257812 L 1.75 -22.257812 L 1.75 0 Z M 16.949219 0 "/></g></g></g><g fill="#1e2c4b" fill-opacity="1"><g transform="translate(234.969159, 222.835963)"><g><path d="M 10.238281 0 L 10.238281 -20.449219 L 18.085938 -20.449219 L 18.085938 -22.257812 L 0.410156 -22.257812 L 0.410156 -20.449219 L 8.226562 -20.449219 L 8.226562 0 Z M 10.238281 0 "/></g></g></g><g fill="#1e2c4b" fill-opacity="1"><g transform="translate(256.379684, 222.835963)"><g><path d="M 16.480469 0 L 16.480469 -1.808594 L 4.316406 -1.808594 L 4.316406 -10.269531 L 14.992188 -10.269531 L 14.992188 -12.078125 L 4.316406 -12.078125 L 4.316406 -20.449219 L 16.480469 -20.449219 L 16.480469 -22.257812 L 2.304688 -22.257812 L 2.304688 0 Z M 16.480469 0 "/></g></g></g><g fill="#1e2c4b" fill-opacity="1"><g transform="translate(277.060989, 222.835963)"><g><path d="M 11.523438 0.292969 C 16.277344 0.292969 19.425781 -2.304688 20.15625 -6.300781 L 18.027344 -6.300781 C 17.414062 -3.238281 14.933594 -1.515625 11.464844 -1.515625 C 6.125 -1.515625 3.472656 -5.6875 3.472656 -11.144531 C 3.472656 -16.570312 6.125 -20.738281 11.464844 -20.738281 C 14.933594 -20.738281 17.445312 -19.019531 18.027344 -16.363281 L 20.15625 -16.363281 C 19.457031 -19.980469 16.277344 -22.546875 11.523438 -22.546875 C 4.636719 -22.546875 1.457031 -17.179688 1.457031 -11.144531 C 1.457031 -5.105469 4.636719 0.292969 11.523438 0.292969 Z M 11.523438 0.292969 "/></g></g></g><g fill="#1e2c4b" fill-opacity="1"><g transform="translate(301.359204, 222.835963)"><g><path d="M 4.316406 0 L 4.316406 -10.328125 L 16.160156 -10.328125 L 16.160156 0 L 18.171875 0 L 18.171875 -22.257812 L 16.160156 -22.257812 L 16.160156 -12.136719 L 4.316406 -12.136719 L 4.316406 -22.257812 L 2.304688 -22.257812 L 2.304688 0 Z M 4.316406 0 "/></g></g></g><g fill="#1e2c4b" fill-opacity="1"><g transform="translate(161.50412, 242.343394)"><g><path d="M 4.40625 -2.484375 L 3.359375 -5.203125 C 3.328125 -5.285156 3.289062 -5.378906 3.25 -5.484375 C 3.21875 -5.585938 3.1875 -5.703125 3.15625 -5.828125 C 3.09375 -5.578125 3.023438 -5.367188 2.953125 -5.203125 L 1.90625 -2.484375 Z M 6.28125 0 L 5.59375 0 C 5.507812 0 5.441406 -0.0195312 5.390625 -0.0625 C 5.335938 -0.101562 5.300781 -0.15625 5.28125 -0.21875 L 4.65625 -1.828125 L 1.65625 -1.828125 L 1.03125 -0.21875 C 1.007812 -0.15625 0.972656 -0.101562 0.921875 -0.0625 C 0.867188 -0.0195312 0.804688 0 0.734375 0 L 0.03125 0 L 2.703125 -6.6875 L 3.609375 -6.6875 Z M 6.28125 0 "/></g></g></g><g fill="#1e2c4b" fill-opacity="1"><g transform="translate(173.976285, 242.343394)"><g><path d="M 3.4375 -0.71875 C 3.707031 -0.71875 3.953125 -0.765625 4.171875 -0.859375 C 4.390625 -0.953125 4.570312 -1.082031 4.71875 -1.25 C 4.875 -1.414062 4.988281 -1.613281 5.0625 -1.84375 C 5.144531 -2.082031 5.1875 -2.34375 5.1875 -2.625 L 5.1875 -6.6875 L 6.09375 -6.6875 L 6.09375 -2.625 C 6.09375 -2.238281 6.03125 -1.878906 5.90625 -1.546875 C 5.78125 -1.210938 5.601562 -0.925781 5.375 -0.6875 C 5.144531 -0.445312 4.863281 -0.257812 4.53125 -0.125 C 4.207031 0.0078125 3.84375 0.078125 3.4375 0.078125 C 3.019531 0.078125 2.644531 0.0078125 2.3125 -0.125 C 1.988281 -0.257812 1.710938 -0.445312 1.484375 -0.6875 C 1.253906 -0.925781 1.078125 -1.210938 0.953125 -1.546875 C 0.828125 -1.878906 0.765625 -2.238281 0.765625 -2.625 L 0.765625 -6.6875 L 1.671875 -6.6875 L 1.671875 -2.625 C 1.671875 -2.34375 1.707031 -2.082031 1.78125 -1.84375 C 1.863281 -1.613281 1.976562 -1.414062 2.125 -1.25 C 2.28125 -1.082031 2.46875 -0.953125 2.6875 -0.859375 C 2.90625 -0.765625 3.15625 -0.71875 3.4375 -0.71875 Z M 3.4375 -0.71875 "/></g></g></g><g fill="#1e2c4b" fill-opacity="1"><g transform="translate(186.99458, 242.343394)"><g><path d="M 5.375 -5.921875 L 3.203125 -5.921875 L 3.203125 0 L 2.3125 0 L 2.3125 -5.921875 L 0.140625 -5.921875 L 0.140625 -6.6875 L 5.375 -6.6875 Z M 5.375 -5.921875 "/></g></g></g><g fill="#1e2c4b" fill-opacity="1"><g transform="translate(198.659223, 242.343394)"><g><path d="M 7.03125 -3.34375 C 7.03125 -2.84375 6.945312 -2.378906 6.78125 -1.953125 C 6.625 -1.535156 6.398438 -1.175781 6.109375 -0.875 C 5.828125 -0.570312 5.484375 -0.335938 5.078125 -0.171875 C 4.671875 -0.015625 4.222656 0.0625 3.734375 0.0625 C 3.242188 0.0625 2.796875 -0.015625 2.390625 -0.171875 C 1.984375 -0.335938 1.632812 -0.570312 1.34375 -0.875 C 1.0625 -1.175781 0.835938 -1.535156 0.671875 -1.953125 C 0.515625 -2.378906 0.4375 -2.84375 0.4375 -3.34375 C 0.4375 -3.84375 0.515625 -4.300781 0.671875 -4.71875 C 0.835938 -5.132812 1.0625 -5.492188 1.34375 -5.796875 C 1.632812 -6.097656 1.984375 -6.332031 2.390625 -6.5 C 2.796875 -6.675781 3.242188 -6.765625 3.734375 -6.765625 C 4.222656 -6.765625 4.671875 -6.675781 5.078125 -6.5 C 5.484375 -6.332031 5.828125 -6.097656 6.109375 -5.796875 C 6.398438 -5.492188 6.625 -5.132812 6.78125 -4.71875 C 6.945312 -4.300781 7.03125 -3.84375 7.03125 -3.34375 Z M 6.09375 -3.34375 C 6.09375 -3.75 6.035156 -4.113281 5.921875 -4.4375 C 5.816406 -4.769531 5.660156 -5.046875 5.453125 -5.265625 C 5.253906 -5.492188 5.003906 -5.664062 4.703125 -5.78125 C 4.410156 -5.90625 4.085938 -5.96875 3.734375 -5.96875 C 3.367188 -5.96875 3.039062 -5.90625 2.75 -5.78125 C 2.457031 -5.664062 2.207031 -5.492188 2 -5.265625 C 1.800781 -5.046875 1.644531 -4.769531 1.53125 -4.4375 C 1.414062 -4.113281 1.359375 -3.75 1.359375 -3.34375 C 1.359375 -2.925781 1.414062 -2.554688 1.53125 -2.234375 C 1.644531 -1.910156 1.800781 -1.632812 2 -1.40625 C 2.207031 -1.1875 2.457031 -1.015625 2.75 -0.890625 C 3.039062 -0.773438 3.367188 -0.71875 3.734375 -0.71875 C 4.085938 -0.71875 4.410156 -0.773438 4.703125 -0.890625 C 5.003906 -1.015625 5.253906 -1.1875 5.453125 -1.40625 C 5.660156 -1.632812 5.816406 -1.910156 5.921875 -2.234375 C 6.035156 -2.554688 6.09375 -2.925781 6.09375 -3.34375 Z M 6.09375 -3.34375 "/></g></g></g><g fill="#1e2c4b" fill-opacity="1"><g transform="translate(212.284319, 242.343394)"><g><path d="M 7.8125 -6.6875 L 7.8125 0 L 7.015625 0 L 7.015625 -4.90625 C 7.015625 -4.976562 7.015625 -5.050781 7.015625 -5.125 C 7.023438 -5.195312 7.03125 -5.269531 7.03125 -5.34375 L 4.75 -1.171875 C 4.675781 -1.023438 4.566406 -0.953125 4.421875 -0.953125 L 4.28125 -0.953125 C 4.132812 -0.953125 4.023438 -1.023438 3.953125 -1.171875 L 1.625 -5.375 C 1.632812 -5.207031 1.640625 -5.050781 1.640625 -4.90625 L 1.640625 0 L 0.859375 0 L 0.859375 -6.6875 L 1.515625 -6.6875 C 1.597656 -6.6875 1.660156 -6.675781 1.703125 -6.65625 C 1.742188 -6.644531 1.785156 -6.601562 1.828125 -6.53125 L 4.140625 -2.421875 C 4.179688 -2.335938 4.21875 -2.253906 4.25 -2.171875 C 4.289062 -2.097656 4.320312 -2.019531 4.34375 -1.9375 C 4.375 -2.019531 4.40625 -2.101562 4.4375 -2.1875 C 4.476562 -2.269531 4.519531 -2.347656 4.5625 -2.421875 L 6.828125 -6.53125 C 6.867188 -6.601562 6.910156 -6.644531 6.953125 -6.65625 C 6.992188 -6.675781 7.054688 -6.6875 7.140625 -6.6875 Z M 7.8125 -6.6875 "/></g></g></g><g fill="#1e2c4b" fill-opacity="1"><g transform="translate(227.10436, 242.343394)"><g><path d="M 4.40625 -2.484375 L 3.359375 -5.203125 C 3.328125 -5.285156 3.289062 -5.378906 3.25 -5.484375 C 3.21875 -5.585938 3.1875 -5.703125 3.15625 -5.828125 C 3.09375 -5.578125 3.023438 -5.367188 2.953125 -5.203125 L 1.90625 -2.484375 Z M 6.28125 0 L 5.59375 0 C 5.507812 0 5.441406 -0.0195312 5.390625 -0.0625 C 5.335938 -0.101562 5.300781 -0.15625 5.28125 -0.21875 L 4.65625 -1.828125 L 1.65625 -1.828125 L 1.03125 -0.21875 C 1.007812 -0.15625 0.972656 -0.101562 0.921875 -0.0625 C 0.867188 -0.0195312 0.804688 0 0.734375 0 L 0.03125 0 L 2.703125 -6.6875 L 3.609375 -6.6875 Z M 6.28125 0 "/></g></g></g><g fill="#1e2c4b" fill-opacity="1"><g transform="translate(239.576528, 242.343394)"><g><path d="M 5.375 -5.921875 L 3.203125 -5.921875 L 3.203125 0 L 2.3125 0 L 2.3125 -5.921875 L 0.140625 -5.921875 L 0.140625 -6.6875 L 5.375 -6.6875 Z M 5.375 -5.921875 "/></g></g></g><g fill="#1e2c4b" fill-opacity="1"><g transform="translate(251.241167, 242.343394)"><g><path d="M 1.765625 0 L 0.859375 0 L 0.859375 -6.6875 L 1.765625 -6.6875 Z M 1.765625 0 "/></g></g></g><g fill="#1e2c4b" fill-opacity="1"><g transform="translate(260.007149, 242.343394)"><g><path d="M 7.03125 -3.34375 C 7.03125 -2.84375 6.945312 -2.378906 6.78125 -1.953125 C 6.625 -1.535156 6.398438 -1.175781 6.109375 -0.875 C 5.828125 -0.570312 5.484375 -0.335938 5.078125 -0.171875 C 4.671875 -0.015625 4.222656 0.0625 3.734375 0.0625 C 3.242188 0.0625 2.796875 -0.015625 2.390625 -0.171875 C 1.984375 -0.335938 1.632812 -0.570312 1.34375 -0.875 C 1.0625 -1.175781 0.835938 -1.535156 0.671875 -1.953125 C 0.515625 -2.378906 0.4375 -2.84375 0.4375 -3.34375 C 0.4375 -3.84375 0.515625 -4.300781 0.671875 -4.71875 C 0.835938 -5.132812 1.0625 -5.492188 1.34375 -5.796875 C 1.632812 -6.097656 1.984375 -6.332031 2.390625 -6.5 C 2.796875 -6.675781 3.242188 -6.765625 3.734375 -6.765625 C 4.222656 -6.765625 4.671875 -6.675781 5.078125 -6.5 C 5.484375 -6.332031 5.828125 -6.097656 6.109375 -5.796875 C 6.398438 -5.492188 6.625 -5.132812 6.78125 -4.71875 C 6.945312 -4.300781 7.03125 -3.84375 7.03125 -3.34375 Z M 6.09375 -3.34375 C 6.09375 -3.75 6.035156 -4.113281 5.921875 -4.4375 C 5.816406 -4.769531 5.660156 -5.046875 5.453125 -5.265625 C 5.253906 -5.492188 5.003906 -5.664062 4.703125 -5.78125 C 4.410156 -5.90625 4.085938 -5.96875 3.734375 -5.96875 C 3.367188 -5.96875 3.039062 -5.90625 2.75 -5.78125 C 2.457031 -5.664062 2.207031 -5.492188 2 -5.265625 C 1.800781 -5.046875 1.644531 -4.769531 1.53125 -4.4375 C 1.414062 -4.113281 1.359375 -3.75 1.359375 -3.34375 C 1.359375 -2.925781 1.414062 -2.554688 1.53125 -2.234375 C 1.644531 -1.910156 1.800781 -1.632812 2 -1.40625 C 2.207031 -1.1875 2.457031 -1.015625 2.75 -0.890625 C 3.039062 -0.773438 3.367188 -0.71875 3.734375 -0.71875 C 4.085938 -0.71875 4.410156 -0.773438 4.703125 -0.890625 C 5.003906 -1.015625 5.253906 -1.1875 5.453125 -1.40625 C 5.660156 -1.632812 5.816406 -1.910156 5.921875 -2.234375 C 6.035156 -2.554688 6.09375 -2.925781 6.09375 -3.34375 Z M 6.09375 -3.34375 "/></g></g></g><g fill="#1e2c4b" fill-opacity="1"><g transform="translate(273.632249, 242.343394)"><g><path d="M 6.265625 -6.6875 L 6.265625 0 L 5.8125 0 C 5.738281 0 5.675781 -0.0078125 5.625 -0.03125 C 5.582031 -0.0625 5.539062 -0.101562 5.5 -0.15625 L 1.625 -5.203125 C 1.632812 -5.117188 1.640625 -5.039062 1.640625 -4.96875 C 1.640625 -4.894531 1.640625 -4.828125 1.640625 -4.765625 L 1.640625 0 L 0.859375 0 L 0.859375 -6.6875 L 1.3125 -6.6875 C 1.351562 -6.6875 1.390625 -6.679688 1.421875 -6.671875 C 1.453125 -6.671875 1.476562 -6.664062 1.5 -6.65625 C 1.519531 -6.644531 1.539062 -6.628906 1.5625 -6.609375 C 1.582031 -6.585938 1.601562 -6.5625 1.625 -6.53125 L 5.5 -1.5 C 5.488281 -1.582031 5.476562 -1.660156 5.46875 -1.734375 C 5.46875 -1.804688 5.46875 -1.878906 5.46875 -1.953125 L 5.46875 -6.6875 Z M 6.265625 -6.6875 "/></g></g></g><path fill="#051d40" d="M 109.796875 231.15625 L 105.324219 231.15625 L 105.324219 226.683594 L 109.796875 226.683594 L 109.796875 231.15625 " fill-opacity="1" fill-rule="nonzero"/><path fill="#051d40" d="M 109.796875 225.8125 L 105.324219 225.8125 L 105.324219 221.339844 L 109.796875 221.339844 L 109.796875 225.8125 " fill-opacity="1" fill-rule="nonzero"/><path fill="#051d40" d="M 115.152344 231.15625 L 110.683594 231.15625 L 110.683594 226.683594 L 115.152344 226.683594 L 115.152344 231.15625 " fill-opacity="1" fill-rule="nonzero"/><path fill="#051d40" d="M 115.152344 225.8125 L 110.683594 225.8125 L 110.683594 221.339844 L 115.152344 221.339844 L 115.152344 225.8125 " fill-opacity="1" fill-rule="nonzero"/><path fill="#56aeff" d="M 100.671875 216.816406 L 95.921875 216.816406 L 95.921875 230.929688 L 100.671875 235.679688 L 100.671875 216.816406 " fill-opacity="1" fill-rule="nonzero"/><path fill="#145da0" d="M 105.386719 201.695312 C 95.234375 203.175781 88.203125 212.605469 89.683594 222.753906 C 90.191406 226.242188 91.640625 229.359375 93.730469 231.890625 L 95.289062 231.664062 L 100.671875 235.679688 L 95.921875 230.929688 L 94.347656 230.929688 C 92.644531 228.121094 91.664062 224.828125 91.664062 221.304688 C 91.664062 211.046875 99.980469 202.730469 110.238281 202.730469 C 113.109375 202.730469 115.824219 203.378906 118.25 204.542969 C 114.585938 202.136719 110.0625 201.011719 105.386719 201.695312 " fill-opacity="1" fill-rule="nonzero"/><g clip-path="url(#03c7e30a20)"><path fill="#56aeff" d="M 111.421875 243.082031 C 124.125 241.230469 132.925781 229.425781 131.074219 216.722656 C 130.058594 209.761719 126.058594 203.972656 120.558594 200.464844 C 117.449219 198.921875 113.945312 198.054688 110.238281 198.054688 C 97.398438 198.054688 86.988281 208.464844 86.988281 221.304688 C 86.988281 224.738281 87.734375 227.996094 89.070312 230.929688 C 89.160156 231.132812 89.253906 231.328125 89.351562 231.523438 C 89.359375 231.542969 89.367188 231.558594 89.375 231.574219 C 89.417969 231.660156 89.460938 231.75 89.507812 231.835938 C 89.523438 231.867188 89.539062 231.898438 89.554688 231.929688 C 89.6875 232.191406 89.828125 232.449219 89.972656 232.707031 C 89.996094 232.75 90.023438 232.792969 90.046875 232.835938 C 90.085938 232.90625 90.128906 232.976562 90.167969 233.046875 C 90.199219 233.097656 90.230469 233.152344 90.261719 233.207031 C 90.300781 233.269531 90.335938 233.332031 90.375 233.394531 C 90.4375 233.5 90.503906 233.601562 90.570312 233.707031 C 90.601562 233.757812 90.632812 233.808594 90.667969 233.859375 C 90.710938 233.929688 90.757812 233.996094 90.800781 234.066406 C 90.835938 234.117188 90.867188 234.164062 90.898438 234.210938 C 90.957031 234.296875 91.011719 234.378906 91.070312 234.464844 C 91.089844 234.496094 91.109375 234.523438 91.132812 234.554688 C 91.210938 234.667969 91.289062 234.777344 91.367188 234.890625 C 91.394531 234.921875 91.417969 234.957031 91.445312 234.992188 C 91.503906 235.078125 91.566406 235.160156 91.628906 235.242188 C 91.65625 235.277344 91.679688 235.308594 91.707031 235.34375 C 91.789062 235.457031 91.875 235.566406 91.964844 235.679688 L 100.671875 235.679688 L 95.289062 231.664062 L 93.730469 231.890625 C 91.640625 229.359375 90.191406 226.242188 89.683594 222.753906 C 88.203125 212.605469 95.234375 203.175781 105.386719 201.695312 C 110.0625 201.011719 114.585938 202.136719 118.25 204.542969 C 124.5 207.53125 128.816406 213.914062 128.816406 221.304688 C 128.816406 231.5625 120.5 239.882812 110.238281 239.882812 C 107.707031 239.882812 105.296875 239.375 103.097656 238.457031 L 94.542969 238.457031 C 95.527344 239.359375 96.59375 240.175781 97.722656 240.898438 C 101.816406 242.9375 106.550781 243.792969 111.421875 243.082031 " fill-opacity="1" fill-rule="nonzero"/></g><g clip-path="url(#c5f5a8a15e)"><path fill="#145da0" d="M 120.558594 200.464844 C 126.058594 203.972656 130.058594 209.761719 131.074219 216.722656 C 132.925781 229.425781 124.125 241.230469 111.421875 243.082031 C 106.550781 243.792969 101.816406 242.9375 97.722656 240.898438 C 101.335938 243.214844 105.628906 244.554688 110.238281 244.554688 C 123.082031 244.554688 133.488281 234.144531 133.488281 221.304688 C 133.488281 212.171875 128.222656 204.269531 120.558594 200.464844 " fill-opacity="1" fill-rule="nonzero"/></g><path fill="#145da0" d="M 95.921875 216.816406 L 95.921875 222.570312 L 110.238281 212.683594 L 110.238281 206.933594 L 95.921875 216.816406 " fill-opacity="1" fill-rule="nonzero"/><path fill="#56aeff" d="M 110.238281 206.933594 L 110.238281 212.683594 L 124.554688 222.570312 L 124.554688 216.816406 L 110.238281 206.933594 " fill-opacity="1" fill-rule="nonzero"/></svg>