<svg xmlns="http://www.w3.org/2000/svg" xmlns:xlink="http://www.w3.org/1999/xlink" width="200" zoomAndPan="magnify" viewBox="0 0 150 49.499998" height="66" preserveAspectRatio="xMidYMid meet" version="1.0"><defs><clipPath id="677ddf5759"><path d="M 5.519531 9.898438 L 32.4375 9.898438 L 32.4375 37 L 5.519531 37 Z M 5.519531 9.898438 " clip-rule="nonzero"/></clipPath><clipPath id="765aca4eaf"><path d="M 11.507812 11.0625 L 33.324219 11.0625 L 33.324219 37.703125 L 11.507812 37.703125 Z M 11.507812 11.0625 " clip-rule="nonzero"/></clipPath></defs><path fill="#ffffff" d="M 46.570312 25.015625 C 47.792969 25.015625 49.1875 24.753906 50.113281 23.480469 L 50.113281 24.71875 L 52.957031 24.71875 L 52.957031 17.285156 L 47.058594 17.285156 L 47.058594 19.796875 L 49.832031 19.796875 C 49.746094 21.507812 48.679688 22.222656 46.921875 22.222656 C 44.480469 22.222656 43.222656 20.582031 43.222656 18.054688 C 43.222656 15.542969 44.480469 13.921875 46.570312 13.921875 C 48.210938 13.921875 49.167969 14.582031 49.484375 15.910156 L 52.902344 15.910156 C 52.46875 13.03125 50.339844 11.128906 46.570312 11.128906 C 42.019531 11.128906 39.925781 14.339844 39.925781 18.054688 C 39.925781 21.769531 42.019531 25.015625 46.570312 25.015625 Z M 46.570312 25.015625 " fill-opacity="1" fill-rule="nonzero"/><path fill="#ffffff" d="M 58.378906 24.71875 L 59.09375 22.328125 L 63.527344 22.328125 L 64.242188 24.71875 L 67.554688 24.71875 L 63.003906 11.40625 L 59.617188 11.40625 L 55.066406 24.71875 Z M 61.308594 14.878906 L 62.707031 19.621094 L 59.914062 19.621094 Z M 61.308594 14.878906 " fill-opacity="1" fill-rule="nonzero"/><path fill="#ffffff" d="M 75.820312 24.71875 L 75.820312 14.199219 L 79.574219 14.199219 L 79.574219 11.40625 L 68.949219 11.40625 L 68.949219 14.199219 L 72.699219 14.199219 L 72.699219 24.71875 Z M 75.820312 24.71875 " fill-opacity="1" fill-rule="nonzero"/><path fill="#ffffff" d="M 91.066406 24.71875 L 91.066406 21.925781 L 85.101562 21.925781 L 85.101562 19.449219 L 90.488281 19.449219 L 90.488281 16.675781 L 85.101562 16.675781 L 85.101562 14.199219 L 91.066406 14.199219 L 91.066406 11.40625 L 81.980469 11.40625 L 81.980469 24.71875 Z M 91.066406 24.71875 " fill-opacity="1" fill-rule="nonzero"/><path fill="#ffffff" d="M 100.128906 24.71875 L 100.128906 12.488281 L 104.824219 12.488281 L 104.824219 11.40625 L 94.253906 11.40625 L 94.253906 12.488281 L 98.925781 12.488281 L 98.925781 24.71875 Z M 100.128906 24.71875 " fill-opacity="1" fill-rule="nonzero"/><path fill="#ffffff" d="M 116.664062 24.71875 L 116.664062 23.636719 L 109.390625 23.636719 L 109.390625 18.578125 L 115.773438 18.578125 L 115.773438 17.496094 L 109.390625 17.496094 L 109.390625 12.488281 L 116.664062 12.488281 L 116.664062 11.40625 L 108.1875 11.40625 L 108.1875 24.71875 Z M 116.664062 24.71875 " fill-opacity="1" fill-rule="nonzero"/><path fill="#ffffff" d="M 126.066406 24.890625 C 128.910156 24.890625 130.792969 23.339844 131.230469 20.949219 L 129.957031 20.949219 C 129.589844 22.78125 128.105469 23.8125 126.03125 23.8125 C 122.839844 23.8125 121.253906 21.316406 121.253906 18.054688 C 121.253906 14.808594 122.839844 12.316406 126.03125 12.316406 C 128.105469 12.316406 129.609375 13.34375 129.957031 14.933594 L 131.230469 14.933594 C 130.8125 12.769531 128.910156 11.234375 126.066406 11.234375 C 121.949219 11.234375 120.046875 14.445312 120.046875 18.054688 C 120.046875 21.664062 121.949219 24.890625 126.066406 24.890625 Z M 126.066406 24.890625 " fill-opacity="1" fill-rule="nonzero"/><path fill="#ffffff" d="M 136.289062 24.71875 L 136.289062 18.542969 L 143.371094 18.542969 L 143.371094 24.71875 L 144.574219 24.71875 L 144.574219 11.40625 L 143.371094 11.40625 L 143.371094 17.460938 L 136.289062 17.460938 L 136.289062 11.40625 L 135.085938 11.40625 L 135.085938 24.71875 Z M 136.289062 24.71875 " fill-opacity="1" fill-rule="nonzero"/><path fill="#ffffff" d="M 52.710938 34.894531 L 52.085938 33.269531 C 52.066406 33.222656 52.042969 33.164062 52.019531 33.101562 C 52.003906 33.042969 51.984375 32.972656 51.964844 32.898438 C 51.929688 33.046875 51.886719 33.171875 51.84375 33.269531 L 51.21875 34.894531 Z M 53.832031 36.382812 L 53.421875 36.382812 C 53.371094 36.382812 53.332031 36.371094 53.300781 36.34375 C 53.269531 36.320312 53.246094 36.289062 53.234375 36.25 L 52.863281 35.289062 L 51.070312 35.289062 L 50.695312 36.25 C 50.679688 36.289062 50.660156 36.320312 50.628906 36.34375 C 50.597656 36.371094 50.558594 36.382812 50.515625 36.382812 L 50.097656 36.382812 L 51.695312 32.382812 L 52.234375 32.382812 Z M 53.832031 36.382812 " fill-opacity="1" fill-rule="nonzero"/><path fill="#ffffff" d="M 59.589844 35.953125 C 59.753906 35.953125 59.898438 35.921875 60.03125 35.867188 C 60.160156 35.8125 60.269531 35.734375 60.359375 35.632812 C 60.449219 35.535156 60.519531 35.417969 60.5625 35.277344 C 60.613281 35.136719 60.636719 34.980469 60.636719 34.8125 L 60.636719 32.382812 L 61.179688 32.382812 L 61.179688 34.8125 C 61.179688 35.042969 61.140625 35.257812 61.066406 35.457031 C 60.992188 35.65625 60.886719 35.828125 60.75 35.96875 C 60.613281 36.113281 60.445312 36.226562 60.246094 36.308594 C 60.050781 36.386719 59.835938 36.429688 59.589844 36.429688 C 59.339844 36.429688 59.117188 36.386719 58.917969 36.308594 C 58.726562 36.226562 58.558594 36.113281 58.421875 35.96875 C 58.285156 35.828125 58.179688 35.65625 58.105469 35.457031 C 58.03125 35.257812 57.992188 35.042969 57.992188 34.8125 L 57.992188 32.382812 L 58.535156 32.382812 L 58.535156 34.8125 C 58.535156 34.980469 58.554688 35.136719 58.601562 35.277344 C 58.648438 35.417969 58.71875 35.535156 58.804688 35.632812 C 58.898438 35.734375 59.011719 35.8125 59.144531 35.867188 C 59.273438 35.921875 59.421875 35.953125 59.589844 35.953125 Z M 59.589844 35.953125 " fill-opacity="1" fill-rule="nonzero"/><path fill="#ffffff" d="M 68.535156 32.839844 L 67.234375 32.839844 L 67.234375 36.382812 L 66.703125 36.382812 L 66.703125 32.839844 L 65.40625 32.839844 L 65.40625 32.382812 L 68.535156 32.382812 Z M 68.535156 32.839844 " fill-opacity="1" fill-rule="nonzero"/><path fill="#ffffff" d="M 76.5 34.382812 C 76.5 34.679688 76.449219 34.960938 76.351562 35.214844 C 76.257812 35.464844 76.121094 35.679688 75.949219 35.859375 C 75.78125 36.039062 75.574219 36.179688 75.332031 36.277344 C 75.089844 36.371094 74.820312 36.417969 74.527344 36.417969 C 74.234375 36.417969 73.96875 36.371094 73.726562 36.277344 C 73.484375 36.179688 73.273438 36.039062 73.097656 35.859375 C 72.929688 35.679688 72.796875 35.464844 72.699219 35.214844 C 72.605469 34.960938 72.558594 34.679688 72.558594 34.382812 C 72.558594 34.082031 72.605469 33.808594 72.699219 33.558594 C 72.796875 33.3125 72.929688 33.097656 73.097656 32.914062 C 73.273438 32.734375 73.484375 32.59375 73.726562 32.496094 C 73.96875 32.390625 74.234375 32.335938 74.527344 32.335938 C 74.820312 32.335938 75.089844 32.390625 75.332031 32.496094 C 75.574219 32.59375 75.78125 32.734375 75.949219 32.914062 C 76.121094 33.097656 76.257812 33.3125 76.351562 33.558594 C 76.449219 33.808594 76.5 34.082031 76.5 34.382812 Z M 75.941406 34.382812 C 75.941406 34.140625 75.90625 33.921875 75.835938 33.726562 C 75.773438 33.53125 75.679688 33.363281 75.554688 33.234375 C 75.4375 33.097656 75.289062 32.996094 75.109375 32.925781 C 74.933594 32.851562 74.738281 32.8125 74.527344 32.8125 C 74.308594 32.8125 74.113281 32.851562 73.941406 32.925781 C 73.765625 32.996094 73.617188 33.097656 73.492188 33.234375 C 73.371094 33.363281 73.277344 33.53125 73.210938 33.726562 C 73.140625 33.921875 73.109375 34.140625 73.109375 34.382812 C 73.109375 34.632812 73.140625 34.855469 73.210938 35.046875 C 73.277344 35.238281 73.371094 35.40625 73.492188 35.539062 C 73.617188 35.671875 73.765625 35.773438 73.941406 35.847656 C 74.113281 35.917969 74.308594 35.953125 74.527344 35.953125 C 74.738281 35.953125 74.933594 35.917969 75.109375 35.847656 C 75.289062 35.773438 75.4375 35.671875 75.554688 35.539062 C 75.679688 35.40625 75.773438 35.238281 75.835938 35.046875 C 75.90625 34.855469 75.941406 34.632812 75.941406 34.382812 Z M 75.941406 34.382812 " fill-opacity="1" fill-rule="nonzero"/><path fill="#ffffff" d="M 85.113281 32.382812 L 85.113281 36.382812 L 84.636719 36.382812 L 84.636719 33.449219 C 84.636719 33.40625 84.636719 33.363281 84.636719 33.316406 C 84.640625 33.273438 84.648438 33.230469 84.648438 33.1875 L 83.28125 35.679688 C 83.238281 35.769531 83.171875 35.8125 83.085938 35.8125 L 83.003906 35.8125 C 82.914062 35.8125 82.847656 35.769531 82.804688 35.679688 L 81.414062 33.167969 C 81.417969 33.269531 81.421875 33.363281 81.421875 33.449219 L 81.421875 36.382812 L 80.957031 36.382812 L 80.957031 32.382812 L 81.347656 32.382812 C 81.398438 32.382812 81.433594 32.390625 81.460938 32.402344 C 81.484375 32.410156 81.511719 32.433594 81.535156 32.476562 L 82.917969 34.933594 C 82.941406 34.984375 82.964844 35.035156 82.984375 35.082031 C 83.007812 35.128906 83.027344 35.175781 83.039062 35.222656 C 83.058594 35.175781 83.078125 35.125 83.097656 35.074219 C 83.121094 35.023438 83.144531 34.976562 83.171875 34.933594 L 84.527344 32.476562 C 84.546875 32.433594 84.574219 32.410156 84.601562 32.402344 C 84.625 32.390625 84.660156 32.382812 84.710938 32.382812 Z M 85.113281 32.382812 " fill-opacity="1" fill-rule="nonzero"/><path fill="#ffffff" d="M 91.9375 34.894531 L 91.3125 33.269531 C 91.292969 33.222656 91.269531 33.164062 91.246094 33.101562 C 91.230469 33.042969 91.210938 32.972656 91.191406 32.898438 C 91.152344 33.046875 91.113281 33.171875 91.070312 33.269531 L 90.445312 34.894531 Z M 93.058594 36.382812 L 92.648438 36.382812 C 92.597656 36.382812 92.558594 36.371094 92.527344 36.34375 C 92.496094 36.320312 92.472656 36.289062 92.460938 36.25 L 92.089844 35.289062 L 90.292969 35.289062 L 89.921875 36.25 C 89.90625 36.289062 89.886719 36.320312 89.855469 36.34375 C 89.824219 36.371094 89.785156 36.382812 89.742188 36.382812 L 89.324219 36.382812 L 90.921875 32.382812 L 91.460938 32.382812 Z M 93.058594 36.382812 " fill-opacity="1" fill-rule="nonzero"/><path fill="#ffffff" d="M 99.976562 32.839844 L 98.679688 32.839844 L 98.679688 36.382812 L 98.144531 36.382812 L 98.144531 32.839844 L 96.847656 32.839844 L 96.847656 32.382812 L 99.976562 32.382812 Z M 99.976562 32.839844 " fill-opacity="1" fill-rule="nonzero"/><path fill="#ffffff" d="M 104.25 32.382812 L 104.792969 32.382812 L 104.792969 36.382812 L 104.25 36.382812 Z M 104.25 32.382812 " fill-opacity="1" fill-rule="nonzero"/><path fill="#ffffff" d="M 113.183594 34.382812 C 113.183594 34.679688 113.132812 34.960938 113.035156 35.214844 C 112.941406 35.464844 112.804688 35.679688 112.632812 35.859375 C 112.464844 36.039062 112.257812 36.179688 112.015625 36.277344 C 111.773438 36.371094 111.503906 36.417969 111.210938 36.417969 C 110.917969 36.417969 110.652344 36.371094 110.410156 36.277344 C 110.164062 36.179688 109.957031 36.039062 109.78125 35.859375 C 109.613281 35.679688 109.480469 35.464844 109.378906 35.214844 C 109.289062 34.960938 109.242188 34.679688 109.242188 34.382812 C 109.242188 34.082031 109.289062 33.808594 109.378906 33.558594 C 109.480469 33.3125 109.613281 33.097656 109.78125 32.914062 C 109.957031 32.734375 110.164062 32.59375 110.410156 32.496094 C 110.652344 32.390625 110.917969 32.335938 111.210938 32.335938 C 111.503906 32.335938 111.773438 32.390625 112.015625 32.496094 C 112.257812 32.59375 112.464844 32.734375 112.632812 32.914062 C 112.804688 33.097656 112.941406 33.3125 113.035156 33.558594 C 113.132812 33.808594 113.183594 34.082031 113.183594 34.382812 Z M 112.621094 34.382812 C 112.621094 34.140625 112.585938 33.921875 112.519531 33.726562 C 112.457031 33.53125 112.363281 33.363281 112.238281 33.234375 C 112.121094 33.097656 111.972656 32.996094 111.792969 32.925781 C 111.617188 32.851562 111.421875 32.8125 111.210938 32.8125 C 110.992188 32.8125 110.796875 32.851562 110.625 32.925781 C 110.449219 32.996094 110.296875 33.097656 110.175781 33.234375 C 110.054688 33.363281 109.960938 33.53125 109.894531 33.726562 C 109.824219 33.921875 109.792969 34.140625 109.792969 34.382812 C 109.792969 34.632812 109.824219 34.855469 109.894531 35.046875 C 109.960938 35.238281 110.054688 35.40625 110.175781 35.539062 C 110.296875 35.671875 110.449219 35.773438 110.625 35.847656 C 110.796875 35.917969 110.992188 35.953125 111.210938 35.953125 C 111.421875 35.953125 111.617188 35.917969 111.792969 35.847656 C 111.972656 35.773438 112.121094 35.671875 112.238281 35.539062 C 112.363281 35.40625 112.457031 35.238281 112.519531 35.046875 C 112.585938 34.855469 112.621094 34.632812 112.621094 34.382812 Z M 112.621094 34.382812 " fill-opacity="1" fill-rule="nonzero"/><path fill="#ffffff" d="M 120.871094 32.382812 L 120.871094 36.382812 L 120.601562 36.382812 C 120.558594 36.382812 120.519531 36.375 120.488281 36.363281 C 120.464844 36.34375 120.4375 36.320312 120.414062 36.289062 L 118.097656 33.269531 C 118.101562 33.320312 118.105469 33.367188 118.105469 33.410156 C 118.105469 33.453125 118.105469 33.496094 118.105469 33.53125 L 118.105469 36.382812 L 117.640625 36.382812 L 117.640625 32.382812 L 117.910156 32.382812 C 117.933594 32.382812 117.957031 32.386719 117.976562 32.390625 C 117.996094 32.390625 118.007812 32.398438 118.023438 32.402344 C 118.035156 32.410156 118.046875 32.417969 118.058594 32.429688 C 118.070312 32.445312 118.082031 32.457031 118.097656 32.476562 L 120.414062 35.484375 C 120.40625 35.433594 120.402344 35.390625 120.394531 35.34375 C 120.394531 35.300781 120.394531 35.257812 120.394531 35.214844 L 120.394531 32.382812 Z M 120.871094 32.382812 " fill-opacity="1" fill-rule="nonzero"/><path fill="#ffffff" d="M 19.160156 29.691406 L 16.484375 29.691406 L 16.484375 27.019531 L 19.160156 27.019531 L 19.160156 29.691406 " fill-opacity="1" fill-rule="nonzero"/><path fill="#ffffff" d="M 19.160156 26.496094 L 16.484375 26.496094 L 16.484375 23.824219 L 19.160156 23.824219 L 19.160156 26.496094 " fill-opacity="1" fill-rule="nonzero"/><path fill="#ffffff" d="M 22.363281 29.691406 L 19.691406 29.691406 L 19.691406 27.019531 L 22.363281 27.019531 L 22.363281 29.691406 " fill-opacity="1" fill-rule="nonzero"/><path fill="#ffffff" d="M 22.363281 26.496094 L 19.691406 26.496094 L 19.691406 23.824219 L 22.363281 23.824219 L 22.363281 26.496094 " fill-opacity="1" fill-rule="nonzero"/><path fill="#ffffff" d="M 13.703125 21.117188 L 10.863281 21.117188 L 10.863281 29.558594 L 13.703125 32.398438 L 13.703125 21.117188 " fill-opacity="1" fill-rule="nonzero"/><path fill="#ffffff" d="M 16.523438 12.074219 C 10.453125 12.960938 6.246094 18.601562 7.132812 24.667969 C 7.4375 26.753906 8.300781 28.617188 9.550781 30.132812 L 10.484375 29.996094 L 13.703125 32.398438 L 10.863281 29.558594 L 9.921875 29.558594 C 8.902344 27.878906 8.316406 25.910156 8.316406 23.800781 C 8.316406 17.667969 13.289062 12.695312 19.421875 12.695312 C 21.140625 12.695312 22.761719 13.082031 24.214844 13.777344 C 22.023438 12.339844 19.316406 11.667969 16.523438 12.074219 " fill-opacity="1" fill-rule="nonzero"/><g clip-path="url(#677ddf5759)"><path fill="#ffffff" d="M 20.132812 36.824219 C 27.726562 35.714844 32.988281 28.65625 31.882812 21.0625 C 31.273438 16.898438 28.882812 13.4375 25.59375 11.339844 C 23.734375 10.417969 21.640625 9.898438 19.421875 9.898438 C 11.746094 9.898438 5.519531 16.125 5.519531 23.800781 C 5.519531 25.855469 5.964844 27.800781 6.765625 29.558594 C 6.820312 29.679688 6.875 29.796875 6.933594 29.910156 C 6.9375 29.921875 6.941406 29.933594 6.949219 29.941406 C 6.972656 29.992188 7 30.046875 7.027344 30.097656 C 7.035156 30.117188 7.046875 30.136719 7.054688 30.15625 C 7.132812 30.3125 7.21875 30.464844 7.304688 30.621094 C 7.320312 30.644531 7.335938 30.671875 7.347656 30.695312 C 7.371094 30.738281 7.398438 30.78125 7.421875 30.824219 C 7.441406 30.851562 7.460938 30.886719 7.476562 30.917969 C 7.5 30.957031 7.523438 30.992188 7.546875 31.03125 C 7.582031 31.09375 7.621094 31.15625 7.664062 31.21875 C 7.679688 31.246094 7.699219 31.277344 7.722656 31.308594 C 7.746094 31.351562 7.773438 31.390625 7.800781 31.433594 C 7.820312 31.460938 7.839844 31.492188 7.859375 31.519531 C 7.894531 31.570312 7.925781 31.621094 7.960938 31.671875 C 7.972656 31.6875 7.984375 31.707031 8 31.722656 C 8.046875 31.792969 8.09375 31.859375 8.140625 31.925781 C 8.15625 31.945312 8.167969 31.964844 8.1875 31.984375 C 8.222656 32.039062 8.257812 32.085938 8.296875 32.136719 C 8.3125 32.15625 8.324219 32.175781 8.34375 32.195312 C 8.390625 32.265625 8.441406 32.328125 8.496094 32.398438 L 13.703125 32.398438 L 10.484375 29.996094 L 9.550781 30.132812 C 8.300781 28.617188 7.4375 26.753906 7.132812 24.667969 C 6.246094 18.601562 10.453125 12.960938 16.523438 12.074219 C 19.316406 11.667969 22.023438 12.339844 24.214844 13.777344 C 27.949219 15.566406 30.53125 19.382812 30.53125 23.800781 C 30.53125 29.933594 25.558594 34.910156 19.421875 34.910156 C 17.910156 34.910156 16.46875 34.605469 15.152344 34.058594 L 10.039062 34.058594 C 10.625 34.597656 11.265625 35.085938 11.9375 35.519531 C 14.386719 36.738281 17.21875 37.25 20.132812 36.824219 " fill-opacity="1" fill-rule="nonzero"/></g><g clip-path="url(#765aca4eaf)"><path fill="#ffffff" d="M 25.59375 11.339844 C 28.882812 13.4375 31.273438 16.898438 31.882812 21.0625 C 32.988281 28.65625 27.726562 35.714844 20.132812 36.824219 C 17.21875 37.25 14.386719 36.738281 11.9375 35.519531 C 14.101562 36.902344 16.667969 37.703125 19.421875 37.703125 C 27.101562 37.703125 33.324219 31.480469 33.324219 23.800781 C 33.324219 18.339844 30.175781 13.613281 25.59375 11.339844 " fill-opacity="1" fill-rule="nonzero"/></g><path fill="#ffffff" d="M 10.863281 21.117188 L 10.863281 24.558594 L 19.421875 18.644531 L 19.421875 15.207031 L 10.863281 21.117188 " fill-opacity="1" fill-rule="nonzero"/><path fill="#ffffff" d="M 19.421875 15.207031 L 19.421875 18.644531 L 27.984375 24.558594 L 27.984375 21.117188 L 19.421875 15.207031 " fill-opacity="1" fill-rule="nonzero"/></svg>