<svg xmlns="http://www.w3.org/2000/svg" xmlns:xlink="http://www.w3.org/1999/xlink" width="200" zoomAndPan="magnify" viewBox="0 0 150 49.499998" height="66" preserveAspectRatio="xMidYMid meet" version="1.0"><defs><clipPath id="0c811714c5"><path d="M 1.625 9.460938 L 30 9.460938 L 30 38.574219 L 1.625 38.574219 Z M 1.625 9.460938 " clip-rule="nonzero"/></clipPath><clipPath id="66de8ada0e"><path d="M 8 10.695312 L 31.085938 10.695312 L 31.085938 38.925781 L 8 38.925781 Z M 8 10.695312 " clip-rule="nonzero"/></clipPath></defs><path fill="#000000" d="M 45.125 25.476562 C 46.414062 25.476562 47.894531 25.199219 48.875 23.851562 L 48.875 25.164062 L 51.886719 25.164062 L 51.886719 17.289062 L 45.640625 17.289062 L 45.640625 19.949219 L 48.578125 19.949219 C 48.488281 21.761719 47.359375 22.519531 45.492188 22.519531 C 42.90625 22.519531 41.574219 20.78125 41.574219 18.101562 C 41.574219 15.441406 42.90625 13.722656 45.125 13.722656 C 46.859375 13.722656 47.875 14.425781 48.210938 15.828125 L 51.832031 15.828125 C 51.371094 12.78125 49.117188 10.765625 45.125 10.765625 C 40.300781 10.765625 38.078125 14.167969 38.078125 18.101562 C 38.078125 22.039062 40.300781 25.476562 45.125 25.476562 Z M 45.125 25.476562 " fill-opacity="1" fill-rule="nonzero"/><path fill="#000000" d="M 57.636719 25.164062 L 58.390625 22.632812 L 63.085938 22.632812 L 63.84375 25.164062 L 67.355469 25.164062 L 62.53125 11.0625 L 58.945312 11.0625 L 54.125 25.164062 Z M 60.738281 14.738281 L 62.21875 19.765625 L 59.261719 19.765625 Z M 60.738281 14.738281 " fill-opacity="1" fill-rule="nonzero"/><path fill="#000000" d="M 76.117188 25.164062 L 76.117188 14.019531 L 80.089844 14.019531 L 80.089844 11.0625 L 68.835938 11.0625 L 68.835938 14.019531 L 72.808594 14.019531 L 72.808594 25.164062 Z M 76.117188 25.164062 " fill-opacity="1" fill-rule="nonzero"/><path fill="#000000" d="M 92.269531 25.164062 L 92.269531 22.207031 L 85.949219 22.207031 L 85.949219 19.582031 L 91.660156 19.582031 L 91.660156 16.640625 L 85.949219 16.640625 L 85.949219 14.019531 L 92.269531 14.019531 L 92.269531 11.0625 L 82.640625 11.0625 L 82.640625 25.164062 Z M 92.269531 25.164062 " fill-opacity="1" fill-rule="nonzero"/><path fill="#000000" d="M 101.875 25.164062 L 101.875 12.207031 L 106.847656 12.207031 L 106.847656 11.0625 L 95.644531 11.0625 L 95.644531 12.207031 L 100.597656 12.207031 L 100.597656 25.164062 Z M 101.875 25.164062 " fill-opacity="1" fill-rule="nonzero"/><path fill="#000000" d="M 119.394531 25.164062 L 119.394531 24.015625 L 111.6875 24.015625 L 111.6875 18.65625 L 118.449219 18.65625 L 118.449219 17.511719 L 111.6875 17.511719 L 111.6875 12.207031 L 119.394531 12.207031 L 119.394531 11.0625 L 110.414062 11.0625 L 110.414062 25.164062 Z M 119.394531 25.164062 " fill-opacity="1" fill-rule="nonzero"/><path fill="#000000" d="M 129.355469 25.347656 C 132.367188 25.347656 134.363281 23.703125 134.828125 21.171875 L 133.476562 21.171875 C 133.089844 23.113281 131.515625 24.203125 129.320312 24.203125 C 125.9375 24.203125 124.253906 21.558594 124.253906 18.101562 C 124.253906 14.664062 125.9375 12.023438 129.320312 12.023438 C 131.515625 12.023438 133.109375 13.113281 133.476562 14.796875 L 134.828125 14.796875 C 134.382812 12.503906 132.367188 10.878906 129.355469 10.878906 C 124.992188 10.878906 122.980469 14.277344 122.980469 18.101562 C 122.980469 21.929688 124.992188 25.347656 129.355469 25.347656 Z M 129.355469 25.347656 " fill-opacity="1" fill-rule="nonzero"/><path fill="#000000" d="M 140.1875 25.164062 L 140.1875 18.621094 L 147.691406 18.621094 L 147.691406 25.164062 L 148.964844 25.164062 L 148.964844 11.0625 L 147.691406 11.0625 L 147.691406 17.472656 L 140.1875 17.472656 L 140.1875 11.0625 L 138.910156 11.0625 L 138.910156 25.164062 Z M 140.1875 25.164062 " fill-opacity="1" fill-rule="nonzero"/><path fill="#000000" d="M 51.628906 35.949219 L 50.96875 34.226562 C 50.945312 34.175781 50.921875 34.113281 50.898438 34.046875 C 50.878906 33.984375 50.859375 33.910156 50.839844 33.832031 C 50.796875 33.988281 50.753906 34.121094 50.710938 34.226562 L 50.046875 35.949219 Z M 52.816406 37.523438 L 52.382812 37.523438 C 52.328125 37.523438 52.285156 37.511719 52.253906 37.484375 C 52.21875 37.457031 52.195312 37.425781 52.183594 37.382812 L 51.789062 36.363281 L 49.886719 36.363281 L 49.492188 37.382812 C 49.476562 37.425781 49.453125 37.457031 49.421875 37.484375 C 49.386719 37.511719 49.347656 37.523438 49.304688 37.523438 L 48.859375 37.523438 L 50.550781 33.285156 L 51.125 33.285156 Z M 52.816406 37.523438 " fill-opacity="1" fill-rule="nonzero"/><path fill="#000000" d="M 58.917969 37.066406 C 59.089844 37.066406 59.246094 37.039062 59.382812 36.976562 C 59.523438 36.917969 59.636719 36.835938 59.730469 36.730469 C 59.828125 36.625 59.902344 36.5 59.949219 36.355469 C 60 36.203125 60.027344 36.039062 60.027344 35.859375 L 60.027344 33.285156 L 60.601562 33.285156 L 60.601562 35.859375 C 60.601562 36.105469 60.5625 36.332031 60.484375 36.542969 C 60.402344 36.753906 60.289062 36.9375 60.144531 37.085938 C 60 37.242188 59.820312 37.359375 59.613281 37.445312 C 59.40625 37.527344 59.175781 37.574219 58.917969 37.574219 C 58.652344 37.574219 58.417969 37.527344 58.207031 37.445312 C 58 37.359375 57.824219 37.242188 57.679688 37.085938 C 57.535156 36.9375 57.421875 36.753906 57.34375 36.542969 C 57.265625 36.332031 57.226562 36.105469 57.226562 35.859375 L 57.226562 33.285156 L 57.800781 33.285156 L 57.800781 35.859375 C 57.800781 36.039062 57.824219 36.203125 57.871094 36.355469 C 57.921875 36.5 57.992188 36.625 58.085938 36.730469 C 58.1875 36.835938 58.304688 36.917969 58.445312 36.976562 C 58.582031 37.039062 58.742188 37.066406 58.917969 37.066406 Z M 58.917969 37.066406 " fill-opacity="1" fill-rule="nonzero"/><path fill="#000000" d="M 68.394531 33.769531 L 67.019531 33.769531 L 67.019531 37.523438 L 66.453125 37.523438 L 66.453125 33.769531 L 65.078125 33.769531 L 65.078125 33.285156 L 68.394531 33.285156 Z M 68.394531 33.769531 " fill-opacity="1" fill-rule="nonzero"/><path fill="#000000" d="M 76.835938 35.402344 C 76.835938 35.722656 76.78125 36.015625 76.675781 36.285156 C 76.578125 36.550781 76.433594 36.777344 76.25 36.96875 C 76.074219 37.160156 75.855469 37.308594 75.597656 37.414062 C 75.339844 37.511719 75.054688 37.5625 74.746094 37.5625 C 74.433594 37.5625 74.152344 37.511719 73.894531 37.414062 C 73.636719 37.308594 73.414062 37.160156 73.230469 36.96875 C 73.054688 36.777344 72.910156 36.550781 72.804688 36.285156 C 72.707031 36.015625 72.65625 35.722656 72.65625 35.402344 C 72.65625 35.085938 72.707031 34.796875 72.804688 34.53125 C 72.910156 34.269531 73.054688 34.042969 73.230469 33.851562 C 73.414062 33.660156 73.636719 33.511719 73.894531 33.40625 C 74.152344 33.292969 74.433594 33.234375 74.746094 33.234375 C 75.054688 33.234375 75.339844 33.292969 75.597656 33.40625 C 75.855469 33.511719 76.074219 33.660156 76.25 33.851562 C 76.433594 34.042969 76.578125 34.269531 76.675781 34.53125 C 76.78125 34.796875 76.835938 35.085938 76.835938 35.402344 Z M 76.242188 35.402344 C 76.242188 35.148438 76.203125 34.917969 76.132812 34.710938 C 76.066406 34.5 75.964844 34.324219 75.835938 34.1875 C 75.710938 34.042969 75.550781 33.933594 75.359375 33.859375 C 75.175781 33.78125 74.96875 33.742188 74.746094 33.742188 C 74.515625 33.742188 74.304688 33.78125 74.121094 33.859375 C 73.9375 33.933594 73.777344 34.042969 73.648438 34.1875 C 73.519531 34.324219 73.421875 34.5 73.351562 34.710938 C 73.277344 34.917969 73.242188 35.148438 73.242188 35.402344 C 73.242188 35.667969 73.277344 35.902344 73.351562 36.105469 C 73.421875 36.3125 73.519531 36.488281 73.648438 36.632812 C 73.777344 36.769531 73.9375 36.878906 74.121094 36.957031 C 74.304688 37.03125 74.515625 37.066406 74.746094 37.066406 C 74.96875 37.066406 75.175781 37.03125 75.359375 36.957031 C 75.550781 36.878906 75.710938 36.769531 75.835938 36.632812 C 75.964844 36.488281 76.066406 36.3125 76.132812 36.105469 C 76.203125 35.902344 76.242188 35.667969 76.242188 35.402344 Z M 76.242188 35.402344 " fill-opacity="1" fill-rule="nonzero"/><path fill="#000000" d="M 85.960938 33.285156 L 85.960938 37.523438 L 85.457031 37.523438 L 85.457031 34.414062 C 85.457031 34.371094 85.457031 34.324219 85.457031 34.277344 C 85.460938 34.230469 85.46875 34.183594 85.46875 34.136719 L 84.023438 36.78125 C 83.976562 36.875 83.90625 36.917969 83.8125 36.917969 L 83.726562 36.917969 C 83.632812 36.917969 83.5625 36.875 83.515625 36.78125 L 82.042969 34.117188 C 82.046875 34.222656 82.050781 34.324219 82.050781 34.414062 L 82.050781 37.523438 L 81.558594 37.523438 L 81.558594 33.285156 L 81.972656 33.285156 C 82.023438 33.285156 82.066406 33.292969 82.089844 33.304688 C 82.117188 33.3125 82.144531 33.339844 82.171875 33.382812 L 83.636719 35.988281 C 83.660156 36.042969 83.6875 36.09375 83.707031 36.148438 C 83.730469 36.195312 83.75 36.242188 83.765625 36.296875 C 83.785156 36.242188 83.804688 36.191406 83.824219 36.136719 C 83.847656 36.085938 83.875 36.035156 83.902344 35.988281 L 85.339844 33.382812 C 85.363281 33.339844 85.390625 33.3125 85.417969 33.304688 C 85.441406 33.292969 85.484375 33.285156 85.535156 33.285156 Z M 85.960938 33.285156 " fill-opacity="1" fill-rule="nonzero"/><path fill="#000000" d="M 93.195312 35.949219 L 92.53125 34.226562 C 92.511719 34.175781 92.488281 34.113281 92.460938 34.046875 C 92.441406 33.984375 92.421875 33.910156 92.402344 33.832031 C 92.363281 33.988281 92.316406 34.121094 92.273438 34.226562 L 91.609375 35.949219 Z M 94.382812 37.523438 L 93.945312 37.523438 C 93.890625 37.523438 93.851562 37.511719 93.816406 37.484375 C 93.785156 37.457031 93.761719 37.425781 93.75 37.382812 L 93.351562 36.363281 L 91.453125 36.363281 L 91.054688 37.382812 C 91.042969 37.425781 91.019531 37.457031 90.988281 37.484375 C 90.953125 37.511719 90.914062 37.523438 90.867188 37.523438 L 90.421875 37.523438 L 92.117188 33.285156 L 92.691406 33.285156 Z M 94.382812 37.523438 " fill-opacity="1" fill-rule="nonzero"/><path fill="#000000" d="M 101.710938 33.769531 L 100.335938 33.769531 L 100.335938 37.523438 L 99.769531 37.523438 L 99.769531 33.769531 L 98.394531 33.769531 L 98.394531 33.285156 L 101.710938 33.285156 Z M 101.710938 33.769531 " fill-opacity="1" fill-rule="nonzero"/><path fill="#000000" d="M 106.242188 33.285156 L 106.816406 33.285156 L 106.816406 37.523438 L 106.242188 37.523438 Z M 106.242188 33.285156 " fill-opacity="1" fill-rule="nonzero"/><path fill="#000000" d="M 115.703125 35.402344 C 115.703125 35.722656 115.652344 36.015625 115.546875 36.285156 C 115.449219 36.550781 115.304688 36.777344 115.121094 36.96875 C 114.941406 37.160156 114.726562 37.308594 114.46875 37.414062 C 114.210938 37.511719 113.925781 37.5625 113.617188 37.5625 C 113.304688 37.5625 113.023438 37.511719 112.765625 37.414062 C 112.507812 37.308594 112.285156 37.160156 112.101562 36.96875 C 111.921875 36.777344 111.78125 36.550781 111.675781 36.285156 C 111.578125 36.015625 111.527344 35.722656 111.527344 35.402344 C 111.527344 35.085938 111.578125 34.796875 111.675781 34.53125 C 111.78125 34.269531 111.921875 34.042969 112.101562 33.851562 C 112.285156 33.660156 112.507812 33.511719 112.765625 33.40625 C 113.023438 33.292969 113.304688 33.234375 113.617188 33.234375 C 113.925781 33.234375 114.210938 33.292969 114.46875 33.40625 C 114.726562 33.511719 114.941406 33.660156 115.121094 33.851562 C 115.304688 34.042969 115.449219 34.269531 115.546875 34.53125 C 115.652344 34.796875 115.703125 35.085938 115.703125 35.402344 Z M 115.109375 35.402344 C 115.109375 35.148438 115.074219 34.917969 115.003906 34.710938 C 114.933594 34.5 114.835938 34.324219 114.703125 34.1875 C 114.578125 34.042969 114.421875 33.933594 114.230469 33.859375 C 114.042969 33.78125 113.839844 33.742188 113.617188 33.742188 C 113.382812 33.742188 113.175781 33.78125 112.992188 33.859375 C 112.808594 33.933594 112.648438 34.042969 112.515625 34.1875 C 112.390625 34.324219 112.292969 34.5 112.21875 34.710938 C 112.144531 34.917969 112.109375 35.148438 112.109375 35.402344 C 112.109375 35.667969 112.144531 35.902344 112.21875 36.105469 C 112.292969 36.3125 112.390625 36.488281 112.515625 36.632812 C 112.648438 36.769531 112.808594 36.878906 112.992188 36.957031 C 113.175781 37.03125 113.382812 37.066406 113.617188 37.066406 C 113.839844 37.066406 114.042969 37.03125 114.230469 36.957031 C 114.421875 36.878906 114.578125 36.769531 114.703125 36.632812 C 114.835938 36.488281 114.933594 36.3125 115.003906 36.105469 C 115.074219 35.902344 115.109375 35.667969 115.109375 35.402344 Z M 115.109375 35.402344 " fill-opacity="1" fill-rule="nonzero"/><path fill="#000000" d="M 123.851562 33.285156 L 123.851562 37.523438 L 123.566406 37.523438 C 123.519531 37.523438 123.480469 37.519531 123.445312 37.503906 C 123.417969 37.484375 123.390625 37.457031 123.367188 37.425781 L 120.914062 34.226562 C 120.917969 34.28125 120.921875 34.332031 120.921875 34.375 C 120.921875 34.421875 120.921875 34.464844 120.921875 34.503906 L 120.921875 37.523438 L 120.425781 37.523438 L 120.425781 33.285156 L 120.714844 33.285156 C 120.738281 33.285156 120.765625 33.289062 120.785156 33.296875 C 120.804688 33.296875 120.816406 33.300781 120.832031 33.304688 C 120.84375 33.3125 120.859375 33.324219 120.871094 33.335938 C 120.886719 33.351562 120.898438 33.363281 120.914062 33.382812 L 123.367188 36.574219 C 123.359375 36.519531 123.351562 36.472656 123.347656 36.425781 C 123.347656 36.378906 123.347656 36.332031 123.347656 36.285156 L 123.347656 33.285156 Z M 123.851562 33.285156 " fill-opacity="1" fill-rule="nonzero"/><path fill="#000000" d="M 16.078125 30.433594 L 13.242188 30.433594 L 13.242188 27.601562 L 16.078125 27.601562 L 16.078125 30.433594 " fill-opacity="1" fill-rule="nonzero"/><path fill="#000000" d="M 16.078125 27.050781 L 13.242188 27.050781 L 13.242188 24.214844 L 16.078125 24.214844 L 16.078125 27.050781 " fill-opacity="1" fill-rule="nonzero"/><path fill="#000000" d="M 19.46875 30.433594 L 16.636719 30.433594 L 16.636719 27.601562 L 19.46875 27.601562 L 19.46875 30.433594 " fill-opacity="1" fill-rule="nonzero"/><path fill="#000000" d="M 19.46875 27.050781 L 16.636719 27.050781 L 16.636719 24.214844 L 19.46875 24.214844 L 19.46875 27.050781 " fill-opacity="1" fill-rule="nonzero"/><path fill="#000000" d="M 10.296875 21.347656 L 7.285156 21.347656 L 7.285156 30.292969 L 10.296875 33.300781 L 10.296875 21.347656 " fill-opacity="1" fill-rule="nonzero"/><path fill="#000000" d="M 13.28125 11.769531 C 6.851562 12.707031 2.394531 18.679688 3.332031 25.109375 C 3.65625 27.320312 4.574219 29.296875 5.898438 30.898438 L 6.882812 30.757812 L 10.296875 33.300781 L 7.285156 30.292969 L 6.289062 30.292969 C 5.210938 28.511719 4.585938 26.425781 4.585938 24.191406 C 4.585938 17.695312 9.855469 12.425781 16.355469 12.425781 C 18.175781 12.425781 19.894531 12.835938 21.433594 13.574219 C 19.109375 12.046875 16.246094 11.335938 13.28125 11.769531 " fill-opacity="1" fill-rule="nonzero"/><g clip-path="url(#0c811714c5)"><path fill="#000000" d="M 17.105469 37.992188 C 25.15625 36.816406 30.730469 29.339844 29.558594 21.289062 C 28.914062 16.878906 26.378906 13.210938 22.894531 10.988281 C 20.925781 10.011719 18.707031 9.460938 16.355469 9.460938 C 8.222656 9.460938 1.625 16.058594 1.625 24.191406 C 1.625 26.367188 2.097656 28.433594 2.945312 30.292969 C 3 30.421875 3.0625 30.542969 3.121094 30.667969 C 3.128906 30.679688 3.132812 30.691406 3.136719 30.699219 C 3.164062 30.753906 3.191406 30.8125 3.222656 30.867188 C 3.230469 30.886719 3.242188 30.90625 3.25 30.925781 C 3.335938 31.089844 3.425781 31.253906 3.515625 31.417969 C 3.53125 31.445312 3.546875 31.472656 3.5625 31.5 C 3.589844 31.542969 3.613281 31.589844 3.640625 31.632812 C 3.660156 31.664062 3.679688 31.699219 3.699219 31.734375 C 3.722656 31.773438 3.746094 31.8125 3.769531 31.851562 C 3.8125 31.921875 3.851562 31.984375 3.894531 32.050781 C 3.914062 32.082031 3.933594 32.117188 3.957031 32.148438 C 3.984375 32.191406 4.015625 32.234375 4.039062 32.277344 C 4.0625 32.3125 4.082031 32.339844 4.101562 32.371094 C 4.140625 32.425781 4.175781 32.476562 4.210938 32.53125 C 4.222656 32.550781 4.238281 32.570312 4.25 32.589844 C 4.300781 32.660156 4.351562 32.730469 4.398438 32.800781 C 4.417969 32.820312 4.433594 32.84375 4.449219 32.867188 C 4.488281 32.917969 4.527344 32.972656 4.566406 33.023438 C 4.582031 33.046875 4.597656 33.066406 4.613281 33.089844 C 4.667969 33.160156 4.722656 33.230469 4.777344 33.300781 L 10.296875 33.300781 L 6.882812 30.757812 L 5.898438 30.898438 C 4.574219 29.296875 3.65625 27.320312 3.332031 25.109375 C 2.394531 18.679688 6.851562 12.707031 13.28125 11.769531 C 16.246094 11.335938 19.109375 12.046875 21.433594 13.574219 C 25.394531 15.464844 28.128906 19.511719 28.128906 24.191406 C 28.128906 30.691406 22.859375 35.964844 16.355469 35.964844 C 14.753906 35.964844 13.226562 35.640625 11.832031 35.0625 L 6.410156 35.0625 C 7.035156 35.632812 7.710938 36.148438 8.425781 36.609375 C 11.019531 37.898438 14.019531 38.441406 17.105469 37.992188 " fill-opacity="1" fill-rule="nonzero"/></g><g clip-path="url(#66de8ada0e)"><path fill="#000000" d="M 22.894531 10.988281 C 26.378906 13.210938 28.914062 16.878906 29.558594 21.289062 C 30.730469 29.339844 25.15625 36.816406 17.105469 37.992188 C 14.019531 38.441406 11.019531 37.898438 8.425781 36.609375 C 10.714844 38.074219 13.4375 38.925781 16.355469 38.925781 C 24.496094 38.925781 31.085938 32.328125 31.085938 24.191406 C 31.085938 18.40625 27.75 13.398438 22.894531 10.988281 " fill-opacity="1" fill-rule="nonzero"/></g><path fill="#000000" d="M 7.285156 21.347656 L 7.285156 24.996094 L 16.355469 18.730469 L 16.355469 15.085938 L 7.285156 21.347656 " fill-opacity="1" fill-rule="nonzero"/><path fill="#000000" d="M 16.355469 15.085938 L 16.355469 18.730469 L 25.425781 24.996094 L 25.425781 21.347656 L 16.355469 15.085938 " fill-opacity="1" fill-rule="nonzero"/></svg>